<mxfile host="www.draw.io" modified="2020-02-12T13:17:05.527Z" agent="Mozilla/5.0 (Macintosh; Intel Mac OS X 10_15_3) AppleWebKit/537.36 (KHTML, like Gecko) Chrome/79.0.3945.130 Safari/537.36" etag="j5xEkMKHkR8T6xdGRnc5" version="12.6.8" type="github">
  <diagram id="prtHgNgQTEPvFCAcTncT" name="Page-1">
    <mxGraphModel dx="786" dy="513" grid="1" gridSize="10" guides="1" tooltips="1" connect="1" arrows="1" fold="1" page="1" pageScale="1" pageWidth="827" pageHeight="1169" math="0" shadow="0">
      <root>
        <mxCell id="0"/>
        <mxCell id="1" parent="0"/>
        <mxCell id="xApgDLnKz8aSdz2nkVge-1" value="Tables" style="text;strokeColor=none;fillColor=none;html=1;fontSize=24;fontStyle=1;verticalAlign=middle;align=center;" vertex="1" parent="1">
          <mxGeometry x="20" y="20" width="100" height="40" as="geometry"/>
        </mxCell>
        <mxCell id="xApgDLnKz8aSdz2nkVge-2" value="&lt;u&gt;Product&lt;br&gt;&lt;br&gt;id SERIAL PRIMARY KEY&lt;br&gt;name VARCHAR (255)&lt;br&gt;description TEXT&lt;br&gt;supplier_id INT REFERENCES&lt;br&gt;buy_cost INT&lt;br&gt;Quantity INT&lt;br&gt;&lt;/u&gt;" style="shape=ext;double=1;rounded=1;whiteSpace=wrap;html=1;" vertex="1" parent="1">
          <mxGeometry x="20" y="80" width="240" height="160" as="geometry"/>
        </mxCell>
        <mxCell id="xApgDLnKz8aSdz2nkVge-3" value="&lt;u&gt;Supplier&lt;br&gt;&lt;br&gt;id PRIMARY KEY&lt;br&gt;name VARCHAR(255)&lt;br&gt;adress VARCHAR(255)&lt;br&gt;phone VARCHAR(255)&lt;br&gt;email VARCHAR(255)&lt;br&gt;&lt;/u&gt;" style="shape=ext;double=1;rounded=1;whiteSpace=wrap;html=1;" vertex="1" parent="1">
          <mxGeometry x="410" y="80" width="240" height="160" as="geometry"/>
        </mxCell>
      </root>
    </mxGraphModel>
  </diagram>
</mxfile>
